<svg width="66" height="54" viewBox="0 0 66 54" fill="none" xmlns="http://www.w3.org/2000/svg">
<path d="M58.7472 16.3179L22.8463 16.3179C19.2413 16.3179 16.3188 19.1279 16.3188 22.5943C16.3188 26.0606 19.2413 28.8706 22.8463 28.8706L58.7472 28.8706C62.3522 28.8706 65.2747 26.0606 65.2747 22.5943C65.2747 19.1279 62.3522 16.3179 58.7472 16.3179Z" fill="#FFAA91"/>
<path d="M58.747 0L6.52745 0C2.92244 0 0 2.81003 0 6.27639C0 9.74274 2.92244 12.5528 6.52745 12.5528L58.747 12.5528C62.352 12.5528 65.2745 9.74274 65.2745 6.27639C65.2745 2.81003 62.352 0 58.747 0Z" fill="#FFAA91"/>
<path d="M58.8579 32.637L42.8182 32.637C39.2748 32.637 36.4023 35.447 36.4023 38.9134C36.4023 42.3797 39.2748 45.1897 42.8182 45.1897H58.8579C62.4013 45.1897 65.2737 42.3797 65.2737 38.9134C65.2737 35.447 62.4013 32.637 58.8579 32.637Z" fill="#FFAA91"/>
<path d="M62.6198 42.4924C62.6198 42.4924 58.6311 51.17 46.7126 53.321C34.7941 55.4718 42.4389 51.8248 42.4389 51.8248C42.4389 51.8248 51.1761 46.962 43.6736 45.2786C36.1711 43.5952 62.6198 42.4924 62.6198 42.4924Z" fill="#FFAA91"/>
</svg>
